<svg width="91" height="33" viewBox="0 0 91 33" fill="none" xmlns="http://www.w3.org/2000/svg">
<path d="M23.5714 0.75H31.8053V32.025H23.5714V27.8031H8.84144L17.1063 20.1524H23.5714V11.8446L0.700195 32.75V21.7158L23.5714 0.75Z" fill="#FD4C3C"/>
<path d="M23.5714 0.75H31.8053V32.025H23.5714V27.8031H8.84144L17.1063 20.1524H23.5714V11.8446L0.700195 32.75V21.7158L23.5714 0.75Z" fill="url(#paint0_linear_1239_10086)"/>
<path d="M40.8116 9.29945H34.053V1.10497H63.5747L54.6996 9.29945H49.679V32.3799H40.8116V9.29945Z" fill="#FD4C3C"/>
<path d="M40.8116 9.29945H34.053V1.10497H63.5747L54.6996 9.29945H49.679V32.3799H40.8116V9.29945Z" fill="url(#paint1_linear_1239_10086)"/>
<path d="M82.1281 8.65748H65.637V24.8576H74.5661C74.9527 24.8702 75.3345 24.7703 75.663 24.5706C75.9628 24.3879 76.2037 24.1261 76.3581 23.8154C76.5267 23.4607 76.6112 23.0735 76.6053 22.6825C76.619 22.1314 76.4268 21.5944 76.0646 21.172C75.8749 20.9707 75.6425 20.8124 75.3836 20.708C75.1248 20.6036 74.8458 20.5558 74.5661 20.5678H67.4136V12.9926H76.1805C77.3357 12.9808 78.4797 13.2153 79.5327 13.6799C80.5798 14.1288 81.5172 14.7904 82.2825 15.6209C83.089 16.4998 83.7087 17.5267 84.1054 18.6419C84.5691 19.9087 84.7967 21.2465 84.7774 22.5919C84.7741 23.8492 84.5467 25.0964 84.1054 26.2775C83.6772 27.4128 83.0527 28.4679 82.2594 29.3967C81.5088 30.2951 80.5817 31.0373 79.5327 31.5793C78.5131 32.1044 77.3792 32.3815 76.2268 32.3875H57.4572V8.65748L65.637 1.10497H90.3002L82.1281 8.65748Z" fill="#FD4C3C"/>
<path d="M82.1281 8.65748H65.637V24.8576H74.5661C74.9527 24.8702 75.3345 24.7703 75.663 24.5706C75.9628 24.3879 76.2037 24.1261 76.3581 23.8154C76.5267 23.4607 76.6112 23.0735 76.6053 22.6825C76.619 22.1314 76.4268 21.5944 76.0646 21.172C75.8749 20.9707 75.6425 20.8124 75.3836 20.708C75.1248 20.6036 74.8458 20.5558 74.5661 20.5678H67.4136V12.9926H76.1805C77.3357 12.9808 78.4797 13.2153 79.5327 13.6799C80.5798 14.1288 81.5172 14.7904 82.2825 15.6209C83.089 16.4998 83.7087 17.5267 84.1054 18.6419C84.5691 19.9087 84.7967 21.2465 84.7774 22.5919C84.7741 23.8492 84.5467 25.0964 84.1054 26.2775C83.6772 27.4128 83.0527 28.4679 82.2594 29.3967C81.5088 30.2951 80.5817 31.0373 79.5327 31.5793C78.5131 32.1044 77.3792 32.3815 76.2268 32.3875H57.4572V8.65748L65.637 1.10497H90.3002L82.1281 8.65748Z" fill="url(#paint2_linear_1239_10086)"/>
<defs>
<linearGradient id="paint0_linear_1239_10086" x1="45.5002" y1="0.75" x2="45.5002" y2="32.75" gradientUnits="userSpaceOnUse">
<stop stop-color="#FF7E6E" stop-opacity="0"/>
<stop offset="1" stop-color="#CB1A0A"/>
</linearGradient>
<linearGradient id="paint1_linear_1239_10086" x1="45.5002" y1="0.75" x2="45.5002" y2="32.75" gradientUnits="userSpaceOnUse">
<stop stop-color="#FF7E6E" stop-opacity="0"/>
<stop offset="1" stop-color="#CB1A0A"/>
</linearGradient>
<linearGradient id="paint2_linear_1239_10086" x1="45.5002" y1="0.75" x2="45.5002" y2="32.75" gradientUnits="userSpaceOnUse">
<stop stop-color="#FF7E6E" stop-opacity="0"/>
<stop offset="1" stop-color="#CB1A0A"/>
</linearGradient>
</defs>
</svg>
